<svg xmlns="http://www.w3.org/2000/svg" viewBox="0 0 200 300" style="background: transparent;"><ellipse cx="100" cy="285" rx="45" ry="6" fill="#000000" opacity="0.08"/><rect x="72" y="120" width="56" height="95" rx="8" fill="#8b7ba8"/><path d="M70,135 Q85,140 95,145 Q100,148 105,145" stroke="none" fill="#8b7ba8" stroke-width="0"/><path d="M130,135 Q115,140 105,145 Q100,148 95,145" stroke="none" fill="#8b7ba8"/><rect x="76" y="210" width="20" height="75" rx="4" fill="#c5cac9"/><rect x="104" y="210" width="20" height="75" rx="4" fill="#c5cac9"/><ellipse cx="86" cy="285" rx="10" ry="5" fill="#2c3e4f"/><ellipse cx="114" cy="285" rx="10" ry="5" fill="#2c3e4f"/><rect x="90" y="120" width="20" height="8" rx="2" fill="#56477e"/><circle cx="100" cy="85" r="28" fill="#b8af9d"/><path d="M68,90 Q60,70 70,55 Q80,45 100,45 Q120,45 130,55 Q140,70 132,90 Q135,95 130,100 Q120,95 110,90 Q105,88 100,88 Q95,88 90,90 Q80,95 70,100 Q65,95 68,90 Z" fill="#2c3e4f"/><rect x="92" y="108" width="16" height="12" rx="8" fill="#b8af9d"/></svg>