<svg xmlns="http://www.w3.org/2000/svg" viewBox="0 0 200 300" style="background: transparent;"><ellipse cx="100" cy="285" rx="45" ry="6" fill="#000000" opacity="0.08"/><rect x="72" y="120" width="56" height="95" rx="8" fill="#7e67a5"/><path d="M68,128 Q52,125 48,145 Q50,165 55,160" stroke="none" fill="#7e67a5" stroke-width="0"/><path d="M132,128 Q148,125 152,145 Q150,165 145,160" stroke="none" fill="#7e67a5"/><rect x="76" y="210" width="20" height="75" rx="4" fill="#231f20"/><rect x="104" y="210" width="20" height="75" rx="4" fill="#231f20"/><ellipse cx="86" cy="285" rx="10" ry="5" fill="#2c3e4f"/><ellipse cx="114" cy="285" rx="10" ry="5" fill="#2c3e4f"/><rect x="90" y="120" width="20" height="8" rx="2" fill="#5a7d8a"/><circle cx="100" cy="85" r="28" fill="#b8af9d"/><path d="M72,87 Q68,72 78,58 Q88,52 100,52 Q112,52 122,58 Q132,72 128,87 Q128,92 125,90 Q118,85 110,83 Q100,82 90,83 Q82,85 75,90 Q72,92 72,87 Z" fill="#2c3e4f"/><rect x="92" y="108" width="16" height="12" rx="8" fill="#b8af9d"/></svg>