<svg xmlns="http://www.w3.org/2000/svg" viewBox="0 0 200 300" style="background: transparent;"><ellipse cx="100" cy="285" rx="45" ry="6" fill="#000000" opacity="0.08"/><rect x="72" y="120" width="56" height="95" rx="8" fill="#8b7ba8"/><path d="M65,130 Q50,140 45,160 Q47,180 52,175" stroke="none" fill="#8b7ba8" stroke-width="0"/><path d="M135,130 Q150,140 155,160 Q153,180 148,175" stroke="none" fill="#8b7ba8"/><rect x="76" y="210" width="20" height="75" rx="4" fill="#c5cac9"/><rect x="104" y="210" width="20" height="75" rx="4" fill="#c5cac9"/><ellipse cx="86" cy="285" rx="10" ry="5" fill="#2c3e4f"/><ellipse cx="114" cy="285" rx="10" ry="5" fill="#2c3e4f"/><rect x="90" y="120" width="20" height="8" rx="2" fill="#56477e"/><circle cx="100" cy="85" r="28" fill="#b8af9d"/><path d="M78,82 Q75,70 82,62 Q88,58 100,58 Q112,58 118,62 Q125,70 122,82 Q118,78 112,76 Q106,75 100,75 Q94,75 88,76 Q82,78 78,82 Z" fill="#2c3e4f"/><rect x="92" y="108" width="16" height="12" rx="8" fill="#b8af9d"/></svg>