<svg xmlns="http://www.w3.org/2000/svg" viewBox="0 0 200 300" style="background: transparent;"><ellipse cx="100" cy="285" rx="45" ry="6" fill="#000000" opacity="0.08"/><rect x="72" y="120" width="56" height="95" rx="8" fill="#e4e3de"/><path d="M70,135 Q85,140 95,145 Q100,148 105,145" stroke="none" fill="#e4e3de" stroke-width="0"/><path d="M130,135 Q115,140 105,145 Q100,148 95,145" stroke="none" fill="#e4e3de"/><rect x="76" y="210" width="20" height="75" rx="4" fill="#7a8b8f"/><rect x="104" y="210" width="20" height="75" rx="4" fill="#7a8b8f"/><ellipse cx="86" cy="285" rx="10" ry="5" fill="#2c3e4f"/><ellipse cx="114" cy="285" rx="10" ry="5" fill="#2c3e4f"/><rect x="90" y="120" width="20" height="8" rx="2" fill="#07577a"/><circle cx="100" cy="85" r="28" fill="#b8af9d"/><path d="M78,82 Q75,70 82,62 Q88,58 100,58 Q112,58 118,62 Q125,70 122,82 Q118,78 112,76 Q106,75 100,75 Q94,75 88,76 Q82,78 78,82 Z" fill="#2c3e4f"/><rect x="92" y="108" width="16" height="12" rx="8" fill="#b8af9d"/></svg>