<svg xmlns="http://www.w3.org/2000/svg" viewBox="0 0 200 300" style="background: transparent;"><ellipse cx="100" cy="285" rx="45" ry="6" fill="#000000" opacity="0.08"/><rect x="72" y="120" width="56" height="95" rx="8" fill="#c4c0b7"/><path d="M70,135 Q85,140 95,145 Q100,148 105,145" stroke="none" fill="#c4c0b7" stroke-width="0"/><path d="M130,135 Q115,140 105,145 Q100,148 95,145" stroke="none" fill="#c4c0b7"/><rect x="76" y="210" width="20" height="75" rx="4" fill="#2c3e4f"/><rect x="104" y="210" width="20" height="75" rx="4" fill="#2c3e4f"/><ellipse cx="86" cy="285" rx="10" ry="5" fill="#2c3e4f"/><ellipse cx="114" cy="285" rx="10" ry="5" fill="#2c3e4f"/><rect x="90" y="120" width="20" height="8" rx="2" fill="#56477e"/><circle cx="100" cy="85" r="28" fill="#b8af9d"/><path d="M72,87 Q68,72 78,58 Q88,52 100,52 Q112,52 122,58 Q132,72 128,87 Q128,92 125,90 Q118,85 110,83 Q100,82 90,83 Q82,85 75,90 Q72,92 72,87 Z" fill="#2c3e4f"/><rect x="92" y="108" width="16" height="12" rx="8" fill="#b8af9d"/></svg>