<svg xmlns="http://www.w3.org/2000/svg" viewBox="0 0 200 300" style="background: transparent;"><ellipse cx="100" cy="285" rx="45" ry="6" fill="#000000" opacity="0.08"/><rect x="72" y="120" width="56" height="95" rx="8" fill="#bfcbcb"/><path d="M68,128 Q52,125 48,145 Q50,165 55,160" stroke="none" fill="#bfcbcb" stroke-width="0"/><path d="M132,128 Q148,125 152,145 Q150,165 145,160" stroke="none" fill="#bfcbcb"/><rect x="76" y="210" width="20" height="75" rx="4" fill="#c5cac9"/><rect x="104" y="210" width="20" height="75" rx="4" fill="#c5cac9"/><ellipse cx="86" cy="285" rx="10" ry="5" fill="#2c3e4f"/><ellipse cx="114" cy="285" rx="10" ry="5" fill="#2c3e4f"/><rect x="90" y="120" width="20" height="8" rx="2" fill="#7e67a5"/><circle cx="100" cy="85" r="28" fill="#b8af9d"/><path d="M70,88 Q65,65 75,55 Q85,50 100,50 Q115,50 125,55 Q135,65 130,88 Q125,90 120,85 Q115,80 105,78 Q100,77 95,78 Q85,80 80,85 Q75,90 70,88 Z" fill="#2c3e4f"/><rect x="92" y="108" width="16" height="12" rx="8" fill="#b8af9d"/></svg>