<svg xmlns="http://www.w3.org/2000/svg" viewBox="0 0 200 300" style="background: transparent;"><ellipse cx="100" cy="285" rx="45" ry="6" fill="#000000" opacity="0.08"/><rect x="72" y="120" width="56" height="95" rx="8" fill="#7e67a5"/><path d="M70,135 Q85,140 95,145 Q100,148 105,145" stroke="none" fill="#7e67a5" stroke-width="0"/><path d="M130,135 Q115,140 105,145 Q100,148 95,145" stroke="none" fill="#7e67a5"/><rect x="76" y="210" width="20" height="75" rx="4" fill="#231f20"/><rect x="104" y="210" width="20" height="75" rx="4" fill="#231f20"/><ellipse cx="86" cy="285" rx="10" ry="5" fill="#2c3e4f"/><ellipse cx="114" cy="285" rx="10" ry="5" fill="#2c3e4f"/><rect x="90" y="120" width="20" height="8" rx="2" fill="#5a7d8a"/><circle cx="100" cy="85" r="28" fill="#b8af9d"/><path d="M75,85 Q70,70 80,60 Q90,55 100,55 Q110,55 120,60 Q130,70 125,85 Q120,75 110,75 Q100,73 90,75 Q80,75 75,85 Z" fill="#2c3e4f"/><rect x="92" y="108" width="16" height="12" rx="8" fill="#b8af9d"/></svg>